<?xml version="1.0" standalone="no"?>
<!DOCTYPE svg PUBLIC "-//W3C//DTD SVG 20010904//EN"
 "http://www.w3.org/TR/2001/REC-SVG-20010904/DTD/svg10.dtd">
<svg version="1.0" xmlns="http://www.w3.org/2000/svg"
 width="768.000000pt" height="751.000000pt" viewBox="0 0 768.000000 751.000000"
 preserveAspectRatio="xMidYMid meet">

<g transform="translate(0.000000,751.000000) scale(0.100000,-0.100000)"
fill="#000000" stroke="none">
<path d="M0 3755 l0 -3755 3840 0 3840 0 0 3755 0 3755 -3840 0 -3840 0 0
-3755z m5622 2809 c-249 -250 -432 -425 -532 -509 -85 -72 -91 -75 -60 -35 36
46 480 492 599 601 57 53 130 103 139 94 1 -1 -64 -69 -146 -151z m251 72 c-1
-4 -24 -24 -50 -45 -26 -21 -147 -139 -268 -262 -250 -255 -503 -491 -517
-483 -5 3 19 36 53 72 97 103 130 132 142 125 5 -3 7 -2 4 4 -6 10 568 588
593 595 20 7 46 3 43 -6z m137 -56 c0 -5 -15 -17 -32 -26 -18 -10 -87 -70
-154 -136 -109 -106 -148 -139 -128 -106 4 7 3 8 -5 4 -6 -4 -9 -11 -6 -16 7
-11 -524 -540 -542 -540 -33 0 -11 29 119 156 78 77 193 191 256 254 63 63
118 114 123 112 5 -1 8 4 7 10 -2 7 3 12 10 10 8 -1 11 2 8 6 -7 12 225 242
267 265 35 19 77 23 77 7z m-63 -202 c-8 -13 -21 -22 -27 -20 -6 1 -9 -1 -6
-6 7 -12 -238 -254 -248 -245 -4 4 -6 3 -4 -4 4 -16 -431 -445 -443 -437 -16
9 101 141 175 197 20 16 33 33 30 39 -5 7 -2 8 5 3 8 -4 18 1 27 14 9 12 20
18 26 15 6 -4 8 -2 5 4 -4 5 7 22 24 36 16 14 28 30 24 35 -3 6 3 8 14 6 14
-2 18 1 14 11 -3 8 0 14 6 14 6 0 11 5 11 10 0 21 152 164 173 165 12 0 21 5
20 12 -2 7 3 10 11 7 9 -3 19 9 30 35 9 23 19 41 22 41 3 0 3 -7 0 -16 -3 -9
-2 -12 5 -9 6 4 8 14 4 22 -6 18 60 87 74 78 5 -3 12 -1 16 5 3 5 11 10 17 10
6 0 4 -10 -5 -22z m-1787 -148 c348 -54 606 -186 861 -440 113 -112 155 -172
242 -346 119 -236 152 -380 152 -649 -1 -164 -3 -190 -29 -289 -90 -352 -210
-573 -425 -786 -198 -197 -418 -325 -656 -380 -44 -11 -98 -24 -120 -29 -58
-15 -264 -13 -380 4 -102 15 -165 30 -244 59 -24 9 -52 16 -63 16 -10 0 -16 4
-13 10 3 6 -1 7 -9 4 -9 -3 -16 -1 -16 5 0 6 -34 27 -76 46 -167 77 -377 254
-504 424 -146 194 -273 488 -306 707 -20 135 -14 400 11 514 58 258 199 524
374 704 211 216 469 359 756 416 103 21 340 26 445 10z m-2371 -264 c15 -8 42
-31 60 -51 25 -29 31 -44 31 -83 l0 -47 137 -137 138 -138 247 0 248 0 -16
-33 -16 -34 -151 -6 c-82 -4 -193 -7 -246 -7 l-96 0 -141 146 -141 145 -37
-21 c-50 -30 -144 -25 -181 10 -49 46 -59 153 -18 208 41 55 125 77 182 48z
m4514 0 c43 -18 85 -68 93 -113 9 -50 -21 -121 -65 -150 -45 -30 -132 -32
-178 -3 l-32 19 -134 -140 -134 -139 -250 0 -251 0 -11 31 c-6 18 -11 34 -11
35 0 2 109 4 242 4 l242 0 135 133 135 132 0 57 c1 46 6 62 26 84 58 62 124
79 193 50z m392 -540 c19 -8 46 -32 62 -57 35 -53 38 -126 8 -178 -21 -35 -98
-81 -138 -81 -42 0 -122 47 -139 82 l-15 33 -521 -4 -520 -3 -7 23 c-18 65
-71 59 508 59 l525 0 6 25 c8 30 62 94 90 105 33 14 104 11 141 -4z m-5247
-18 c21 -13 42 -38 54 -65 l19 -43 514 0 c567 0 525 5 509 -57 l-6 -23 -513 0
-513 0 -20 -34 c-23 -39 -86 -76 -129 -76 -16 0 -49 10 -73 23 -109 55 -120
206 -20 275 45 30 129 31 178 0z m359 -319 l29 -24 149 12 c83 6 232 12 333
12 l183 1 -3 -32 c-2 -25 -9 -34 -28 -39 -14 -4 -156 -7 -317 -8 l-292 -1 -10
-37 c-33 -118 -167 -155 -248 -68 -26 28 -33 43 -33 76 0 49 30 102 68 124 42
24 132 15 169 -16z m4579 -13 c39 -38 44 -48 44 -89 0 -74 -69 -137 -150 -137
-44 0 -108 61 -116 110 l-6 37 -61 7 c-33 3 -185 6 -338 6 l-279 0 0 24 c0 13
-3 31 -6 40 -5 14 11 16 147 15 85 0 244 -4 354 -9 l200 -8 25 24 c20 20 35
24 84 24 56 0 61 -2 102 -44z m-3908 -241 l-1 -34 -246 -3 c-135 -2 -249 -1
-252 2 -4 3 -5 20 -2 37 l5 33 242 2 c132 2 244 2 248 0 4 -1 7 -18 6 -37z
m3542 0 l0 -35 -265 0 -265 0 4 33 c3 17 5 33 5 35 1 1 118 2 261 2 l260 0 0
-35z m700 -57 c61 -31 90 -77 90 -142 0 -93 -62 -156 -154 -156 -61 0 -104 25
-134 79 l-22 39 -73 -3 c-47 -3 -73 -9 -76 -17 -13 -45 -82 -88 -141 -88 -36
0 -47 6 -81 41 -21 22 -39 45 -39 51 0 11 -162 8 -482 -9 l-128 -6 0 26 c0 57
-1 57 169 57 199 0 445 17 449 30 2 6 15 24 28 39 47 56 146 48 204 -17 34
-37 38 -39 102 -40 65 -1 67 -1 73 27 7 32 57 85 95 100 40 16 73 13 120 -11z
m-5280 -23 c16 -15 34 -43 40 -61 l11 -34 62 7 c55 5 66 10 97 44 64 68 179
60 220 -16 l17 -30 159 -7 c87 -4 220 -9 294 -10 144 -3 148 -4 149 -57 l1
-24 -142 8 c-79 4 -212 10 -296 14 l-153 6 -23 -36 c-25 -38 -78 -69 -117 -69
-36 0 -105 46 -119 80 -12 30 -14 30 -86 30 -67 0 -73 -2 -79 -22 -17 -54 -84
-98 -147 -98 -18 0 -51 10 -73 23 -98 55 -99 195 -2 265 27 20 42 23 94 20 53
-3 67 -9 93 -33z m1094 -366 c3 -17 5 -34 3 -36 -2 -1 -85 -4 -185 -5 l-182
-3 -144 -143 c-142 -141 -144 -143 -148 -194 -5 -45 -11 -57 -48 -91 -41 -38
-43 -39 -105 -35 -106 7 -165 73 -152 171 17 126 158 175 269 95 16 -11 33 2
145 113 71 70 138 132 149 140 16 10 70 15 206 18 l185 3 7 -33z m3437 -112
c130 -135 138 -141 155 -126 84 74 189 61 251 -31 36 -52 39 -93 11 -148 -74
-143 -272 -109 -294 50 -5 36 -13 51 -38 69 -17 12 -82 76 -144 141 l-114 118
-97 -6 c-106 -7 -271 3 -271 16 0 5 4 20 9 33 l9 24 194 1 193 1 136 -142z
m777 -1064 c-3 -106 -6 -128 -18 -128 -12 0 -16 20 -18 105 -3 119 2 150 23
150 13 0 15 -19 13 -127z m384 -200 c38 -83 68 -170 68 -195 0 -13 -7 -18 -25
-18 -20 0 -27 6 -31 29 -6 28 -9 29 -61 33 -54 3 -56 2 -71 -29 -11 -23 -23
-33 -39 -33 -13 0 -23 4 -23 8 0 7 22 71 77 230 13 36 19 42 45 42 26 0 32 -6
60 -67z m166 -75 l3 -138 -25 0 c-16 0 -26 7 -30 23 -8 31 -8 242 1 251 4 4
16 6 28 4 19 -3 20 -11 23 -140z m-5621 17 c46 -15 90 -33 100 -40 16 -12 16
-15 0 -46 -9 -19 -23 -51 -31 -71 l-15 -37 -58 23 c-74 31 -139 40 -210 31
-46 -6 -63 -13 -90 -40 -27 -27 -33 -41 -33 -75 0 -60 41 -97 151 -134 202
-70 269 -111 308 -195 36 -78 37 -203 2 -274 -66 -134 -234 -213 -399 -186
-113 18 -272 83 -272 112 0 6 17 36 37 66 21 31 39 58 40 60 1 2 29 -8 60 -22
210 -93 407 -37 390 111 -7 64 -41 90 -180 137 -206 70 -265 114 -303 227 -21
65 -15 167 14 224 20 40 81 102 121 123 88 48 236 50 368 6z m1365 28 c2 -5 2
-41 0 -80 l-4 -73 -74 0 c-71 0 -134 -16 -148 -38 -3 -6 -9 -31 -13 -57 l-6
-47 99 3 99 4 0 -75 0 -75 -97 -3 -98 -3 0 -308 0 -308 -76 -6 c-42 -4 -80 -4
-86 -1 -6 4 -9 91 -8 223 1 119 1 258 1 309 l-1 93 -45 -7 -45 -6 0 80 0 81
48 3 47 3 1 66 c1 105 53 178 151 214 40 14 249 21 255 8z m1967 -30 c41 -38
328 -473 408 -618 l33 -60 -7 353 -6 352 85 0 86 0 7 -227 c3 -126 5 -364 3
-530 l-3 -303 -57 0 c-55 0 -58 1 -91 43 -34 42 -230 336 -349 524 -36 56 -68
100 -72 96 -3 -3 -6 -154 -6 -335 l0 -328 -85 0 -85 0 -2 530 -3 530 57 0 c49
0 62 -4 87 -27z m1642 -49 c5 -15 10 -67 11 -115 l1 -89 42 0 c23 0 70 -3 104
-6 l62 -7 -3 -66 -3 -66 -104 -3 -103 -3 7 -192 c3 -106 11 -207 17 -225 13
-42 38 -54 113 -54 l62 0 7 -75 c4 -42 5 -77 3 -79 -2 -2 -37 -7 -78 -10 -64
-6 -82 -3 -127 16 -59 25 -100 68 -137 140 -24 48 -25 55 -25 263 l0 214 -48
-5 -49 -4 -6 53 c-12 100 -14 98 46 101 l52 3 3 92 c2 59 7 95 16 102 9 8 66
27 124 40 1 1 7 -11 13 -25z m-2713 -95 l3 -106 90 -6 c50 -3 92 -7 93 -9 2
-2 1 -36 -2 -75 l-4 -73 -96 0 -95 0 6 -195 c4 -108 11 -204 17 -215 19 -36
52 -50 117 -50 l62 0 6 -57 c3 -32 7 -67 8 -77 3 -26 -27 -34 -123 -34 -64 0
-81 3 -120 27 -26 16 -62 51 -85 85 l-40 58 -7 226 c-3 125 -7 228 -7 229 -1
1 -22 3 -48 5 -52 3 -54 8 -66 106 l-5 42 64 0 64 0 0 95 c0 52 1 95 3 95 1 0
27 9 57 20 30 10 66 18 80 17 25 -2 25 -3 28 -108z m-1605 -126 c58 -18 112
-69 140 -132 18 -39 22 -75 28 -236 4 -104 8 -236 8 -292 l1 -103 -80 0 c-71
0 -80 2 -80 18 0 31 -9 31 -72 2 -120 -57 -227 -47 -311 29 -105 94 -117 263
-26 346 59 53 149 77 284 74 l110 -2 -2 48 c-2 75 -26 98 -107 109 -52 7 -84
6 -147 -8 -45 -10 -87 -20 -94 -22 -8 -4 -18 9 -25 33 -7 21 -21 50 -31 65
-11 14 -19 30 -19 35 0 9 125 41 210 53 69 9 150 3 213 -17z m3819 5 c53 -16
146 -105 176 -171 31 -65 54 -170 50 -226 l-3 -46 -253 -3 -252 -2 6 -28 c12
-50 40 -87 85 -112 37 -21 57 -25 124 -25 57 1 91 6 120 20 22 10 43 19 47 19
11 1 108 -116 108 -130 0 -14 -126 -58 -205 -73 -115 -22 -266 25 -351 108
-23 22 -55 66 -70 98 -28 56 -29 64 -29 203 0 133 2 149 24 190 81 157 253
229 423 178z m-2687 -17 c69 -32 103 -68 148 -155 28 -55 31 -72 35 -168 l4
-108 -246 0 c-233 0 -246 -1 -246 -18 0 -28 55 -99 90 -117 76 -39 188 -38
272 4 l38 18 36 -64 c41 -74 43 -71 -56 -120 -50 -26 -65 -28 -165 -28 -105 0
-114 2 -177 33 -90 44 -155 116 -188 208 -31 85 -34 225 -7 316 23 76 84 151
150 185 67 34 96 41 182 42 58 1 81 -4 130 -28z m916 -201 c7 -252 14 -283 72
-318 37 -24 107 -29 152 -12 l26 10 -2 272 -1 273 78 0 79 0 3 -265 c5 -433
-13 -552 -100 -661 -44 -55 -160 -136 -222 -154 -51 -16 -242 -21 -249 -7 -2
4 -2 39 1 78 l4 71 83 5 c128 8 248 74 281 155 25 58 23 60 -73 56 -81 -4 -92
-2 -138 24 -57 33 -119 108 -139 173 -26 80 -49 504 -29 524 4 4 43 5 88 4
l80 -3 6 -225z m948 -766 c3 -3 5 -115 4 -247 -2 -215 -5 -243 -20 -255 -23
-16 -58 -15 -73 3 -16 19 -3 496 14 508 11 8 65 1 75 -9z m-358 -36 c12 -24
43 -97 69 -163 26 -66 62 -155 80 -197 18 -43 30 -84 27 -92 -6 -14 -71 -31
-86 -21 -5 3 -17 28 -26 56 -21 62 -40 71 -144 67 l-75 -3 -21 -55 c-24 -62
-55 -82 -99 -62 -31 14 -31 16 76 295 l83 217 47 0 c46 0 48 -2 69 -42z
m-2441 -117 c147 -6 157 -10 65 -27 -40 -7 -40 -7 -10 -13 24 -5 27 -8 15 -16
-9 -6 -274 -9 -684 -7 -705 2 -707 2 -690 45 5 14 29 17 182 20 338 5 968 4
1122 -2z m4234 -7 c9 -8 16 -19 16 -24 0 -28 -57 -30 -637 -28 l-598 3 -3 27
c-3 22 1 27 25 31 15 2 288 5 605 6 512 1 578 -1 592 -15z"/>
<path d="M5619 6253 c-13 -16 -12 -17 4 -4 9 7 17 15 17 17 0 8 -8 3 -21 -13z"/>
<path d="M5879 6343 c-13 -16 -12 -17 4 -4 9 7 17 15 17 17 0 8 -8 3 -21 -13z"/>
<path d="M5649 6123 c-13 -16 -12 -17 4 -4 16 13 21 21 13 21 -2 0 -10 -8 -17
-17z"/>
<path d="M5379 5839 l-24 -20 28 17 c15 9 27 18 27 20 0 8 -8 4 -31 -17z"/>
<path d="M5329 5793 c-13 -16 -12 -17 4 -4 9 7 17 15 17 17 0 8 -8 3 -21 -13z"/>
<path d="M3750 6074 c-173 -37 -358 -120 -516 -229 -126 -89 -192 -151 -277
-264 -119 -158 -175 -283 -232 -521 -72 -299 4 -687 193 -994 153 -248 408
-463 653 -550 101 -37 343 -86 418 -86 114 0 372 66 509 130 275 129 538 405
660 690 105 246 138 523 92 776 -23 131 -44 194 -110 332 -64 134 -120 212
-245 341 -127 132 -169 163 -333 252 -61 34 -268 105 -362 125 -86 18 -363 17
-450 -2z m401 -182 c160 -53 281 -182 330 -352 7 -25 13 -91 12 -147 l0 -103
-51 -104 c-57 -118 -98 -168 -184 -226 -86 -57 -169 -80 -287 -79 -63 0 -89 3
-76 9 16 7 13 9 -16 9 -19 1 -60 8 -90 17 -61 18 -163 89 -153 106 4 6 3 8 -4
5 -14 -10 -80 85 -116 168 -29 66 -31 77 -31 200 0 111 4 138 23 186 65 163
214 297 365 329 62 13 214 4 278 -18z m-771 -417 c0 -8 -7 -20 -16 -27 -43
-34 -194 -183 -194 -191 0 -5 38 -48 84 -95 l84 -85 38 31 c43 36 59 39 68 15
4 -11 -4 -27 -24 -48 -16 -17 -30 -34 -30 -39 0 -10 151 -176 161 -176 4 0 14
7 23 15 18 18 38 19 54 3 8 -8 6 -18 -9 -40 l-20 -28 77 -85 c43 -47 81 -85
83 -85 3 0 35 29 71 64 l65 64 73 4 72 3 66 -60 c35 -33 68 -60 73 -60 10 0
55 40 119 107 l53 54 -22 28 c-19 24 -20 29 -7 42 14 15 48 10 48 -7 0 -5 7
-9 16 -9 17 0 174 153 174 169 0 4 -12 21 -26 36 -23 25 -24 31 -13 51 16 31
22 30 52 -6 14 -16 29 -30 34 -30 5 0 44 35 87 79 62 62 77 83 72 99 -4 11
-43 54 -86 96 -81 77 -102 114 -57 101 32 -10 83 -51 142 -113 l52 -55 38 42
c21 23 60 60 87 83 43 36 51 39 64 26 13 -13 6 -24 -61 -96 -41 -45 -75 -87
-75 -92 0 -6 36 -48 79 -93 l79 -82 50 43 c56 46 67 50 76 25 4 -10 -7 -32
-34 -64 -22 -26 -40 -49 -40 -51 0 -2 29 -34 65 -70 105 -108 80 -140 -30 -38
-35 33 -70 60 -76 60 -16 0 -169 -151 -169 -167 0 -15 14 -31 108 -118 l63
-59 67 72 c68 73 88 84 98 57 4 -9 -18 -41 -60 -86 -36 -39 -66 -74 -66 -78 0
-3 23 -32 50 -65 28 -32 49 -63 47 -69 -7 -23 -28 -17 -69 20 -84 75 -69 76
-164 -18 -46 -46 -84 -87 -84 -90 0 -4 37 -46 83 -94 78 -81 85 -86 105 -74
12 7 24 10 28 6 8 -8 -42 -87 -56 -87 -6 0 -10 -7 -10 -16 0 -8 -34 -51 -75
-94 -41 -43 -76 -84 -76 -89 -1 -6 -2 -16 -3 -23 0 -6 -11 -12 -22 -13 -24 -2
-40 -14 -131 -100 -35 -32 -63 -64 -63 -72 0 -7 -8 -16 -17 -20 -10 -3 -50
-30 -89 -60 -39 -29 -73 -53 -77 -53 -20 0 0 34 52 87 l58 60 -83 77 c-45 42
-87 76 -92 76 -10 0 -155 -145 -160 -160 -2 -5 26 -44 62 -85 37 -42 64 -80
61 -86 -13 -20 -39 -6 -100 52 -47 45 -68 59 -83 55 -10 -4 -49 -36 -85 -73
-49 -49 -63 -70 -56 -79 8 -10 1 -15 -26 -23 -38 -10 -65 -6 -65 11 0 21 -163
178 -185 178 -14 0 -43 -21 -76 -55 -57 -58 -69 -64 -89 -40 -11 13 -3 26 54
82 36 36 66 68 66 71 0 10 -151 152 -163 152 -14 0 -157 -140 -157 -154 0 -5
16 -26 35 -47 34 -38 44 -59 27 -59 -15 0 -124 89 -202 164 -41 39 -86 80
-100 91 -36 28 -177 205 -189 238 -6 15 -7 27 -2 27 4 0 41 -36 80 -80 40 -44
78 -80 85 -80 19 0 166 150 166 169 0 9 -36 51 -81 93 l-82 77 -26 -19 c-14
-10 -55 -48 -91 -84 -63 -65 -65 -66 -80 -46 -15 19 -12 24 50 88 37 37 74 79
84 94 l18 28 -60 57 c-33 32 -71 69 -85 82 l-26 23 -42 -35 c-23 -20 -46 -34
-50 -31 -17 10 -10 63 10 74 41 22 36 49 -19 105 -44 45 -51 57 -48 85 l3 33
73 -73 72 -74 46 45 c25 24 64 66 86 92 l41 48 -79 80 c-43 43 -86 79 -94 79
-9 0 -40 -25 -70 -55 -30 -30 -58 -55 -63 -55 -21 0 6 66 43 106 22 24 40 49
40 56 0 6 -12 24 -27 40 -24 25 -25 30 -14 54 l12 27 40 -39 39 -38 66 64 c36
36 75 77 86 93 l20 27 -77 76 c-73 72 -88 101 -56 112 7 2 49 -32 93 -77 l80
-81 77 72 c67 63 147 117 174 118 4 0 7 -7 7 -15z"/>
<path d="M3933 5689 c-48 -14 -99 -68 -113 -118 -17 -65 1 -120 57 -172 l45
-41 -4 -118 c-3 -106 -1 -120 16 -139 31 -34 94 -26 118 14 15 26 16 37 7 70
-6 21 -9 69 -7 106 3 65 6 70 44 106 46 43 69 99 60 147 -10 52 -56 114 -102
136 -43 22 -71 23 -121 9z"/>
<path d="M4018 4893 c7 -3 16 -2 19 1 4 3 -2 6 -13 5 -11 0 -14 -3 -6 -6z"/>
<path d="M3031 5124 l-84 -85 84 -85 c46 -46 88 -84 92 -84 13 0 167 152 167
164 0 14 -152 176 -165 176 -5 0 -47 -39 -94 -86z"/>
<path d="M4727 5125 c-42 -42 -77 -81 -77 -87 0 -13 151 -168 165 -168 13 0
181 168 174 174 -66 73 -157 156 -169 156 -9 0 -51 -34 -93 -75z"/>
<path d="M4520 4914 c-44 -42 -80 -84 -80 -93 0 -15 148 -171 162 -171 12 0
168 161 168 173 0 13 -150 167 -163 167 -4 0 -43 -34 -87 -76z"/>
<path d="M3247 4901 l-82 -79 90 -92 90 -92 83 88 c45 48 82 91 82 94 0 13
-154 160 -167 160 -8 0 -51 -36 -96 -79z"/>
<path d="M3030 4695 l-84 -84 85 -88 c46 -48 89 -89 95 -91 6 -1 48 36 93 84
l83 86 -88 89 c-49 49 -91 89 -94 89 -3 0 -43 -38 -90 -85z"/>
<path d="M3470 4692 c-44 -43 -80 -84 -80 -91 0 -16 150 -171 165 -171 7 0 48
38 90 85 l78 85 -79 83 c-43 45 -82 84 -86 85 -5 2 -44 -32 -88 -76z"/>
<path d="M4309 4693 c-44 -42 -78 -83 -77 -90 2 -7 37 -51 78 -97 l75 -85 88
87 c48 48 87 91 87 97 0 12 -152 165 -164 165 -5 0 -44 -35 -87 -77z"/>
<path d="M4729 4693 c-44 -42 -79 -81 -79 -87 0 -6 38 -49 85 -96 l84 -84 86
86 c47 47 85 90 85 96 0 15 -152 162 -169 162 -7 0 -49 -35 -92 -77z"/>
<path d="M3886 4680 c-72 -74 -77 -81 -63 -100 21 -31 138 -150 146 -150 4 0
45 38 91 86 l83 85 -79 80 c-43 43 -83 79 -90 79 -6 0 -45 -36 -88 -80z"/>
<path d="M3250 4472 c-44 -43 -80 -83 -80 -88 0 -9 47 -57 142 -143 43 -40 40
-42 132 71 l64 77 -78 80 c-43 45 -83 81 -89 81 -6 0 -47 -35 -91 -78z"/>
<path d="M3678 4472 c-43 -43 -78 -84 -78 -92 0 -7 37 -49 81 -92 l81 -78 50
47 c27 27 64 67 83 91 l34 43 -81 80 c-44 43 -83 79 -86 79 -3 0 -41 -35 -84
-78z"/>
<path d="M4099 4474 c-43 -43 -79 -82 -79 -88 0 -14 155 -176 168 -176 11 0
140 139 156 167 6 11 -9 33 -60 85 -102 103 -92 102 -185 12z"/>
<path d="M4565 4523 c-17 -15 -54 -54 -83 -85 l-53 -58 86 -87 85 -87 85 84
c47 47 85 90 85 97 0 14 -145 156 -164 161 -6 1 -25 -10 -41 -25z"/>
<path d="M3469 4255 c-41 -41 -75 -81 -77 -89 -4 -16 135 -166 153 -166 7 0
50 39 94 87 l81 87 -77 78 c-43 43 -83 78 -89 78 -6 0 -44 -34 -85 -75z"/>
<path d="M3877 4252 l-80 -79 84 -89 c46 -49 88 -89 93 -89 5 0 45 40 89 88
l81 88 -79 79 c-44 44 -86 80 -94 80 -7 0 -50 -35 -94 -78z"/>
<path d="M4306 4251 l-79 -79 21 -27 c11 -14 49 -56 83 -92 l61 -66 90 93 89
94 -83 77 c-46 43 -88 78 -93 79 -6 0 -46 -36 -89 -79z"/>
<path d="M4727 4256 c-47 -43 -78 -80 -75 -89 1 -8 39 -53 84 -99 l81 -84 89
93 c66 69 86 96 79 105 -30 37 -155 148 -167 148 -7 0 -48 -33 -91 -74z"/>
<path d="M3683 4053 c-109 -109 -108 -91 -12 -188 l84 -85 82 82 c46 46 83 87
83 93 0 12 -151 165 -163 165 -3 0 -37 -30 -74 -67z"/>
<path d="M4098 4042 c-43 -43 -78 -85 -78 -94 0 -14 152 -168 166 -168 6 0 71
66 136 137 l30 33 -79 85 c-43 47 -82 85 -87 85 -5 0 -45 -35 -88 -78z"/>
<path d="M4518 4042 c-43 -43 -78 -85 -78 -93 0 -8 36 -50 79 -93 l80 -79 90
83 c50 45 91 85 91 88 0 6 -173 172 -179 172 -3 0 -40 -35 -83 -78z"/>
<path d="M3259 4043 c-90 -86 -98 -100 -67 -121 12 -9 53 -44 89 -79 l66 -63
77 84 c42 46 76 88 76 93 0 13 -144 153 -158 153 -6 0 -44 -30 -83 -67z"/>
<path d="M3875 3823 c-41 -43 -74 -80 -73 -84 2 -4 39 -45 84 -92 l81 -85 88
88 c48 48 86 92 84 97 -9 21 -158 153 -172 153 -9 0 -50 -35 -92 -77z"/>
<path d="M1682 5880 c-45 -42 -13 -120 49 -120 30 0 69 40 69 70 0 10 -9 29
-21 44 -25 32 -66 34 -97 6z"/>
<path d="M6196 5876 c-33 -32 -33 -60 -1 -91 62 -63 154 16 98 83 -30 35 -68
38 -97 8z"/>
<path d="M6570 5323 c-55 -71 47 -156 108 -90 29 30 28 62 -3 92 -33 34 -77
33 -105 -2z"/>
<path d="M1319 5335 c-29 -15 -44 -54 -34 -86 7 -22 54 -49 85 -49 56 0 81 87
37 128 -27 25 -51 27 -88 7z"/>
<path d="M1690 5037 c-17 -8 -26 -22 -28 -43 -3 -32 8 -47 44 -58 50 -15 91
70 48 101 -22 16 -32 16 -64 0z"/>
<path d="M6263 5039 c-26 -9 -41 -55 -26 -78 18 -28 58 -36 87 -17 57 37 4
119 -61 95z"/>
<path d="M6605 4675 c-32 -31 -32 -55 0 -89 30 -33 68 -34 100 -1 31 30 32 65
2 93 -31 29 -72 28 -102 -3z"/>
<path d="M6194 4672 c-6 -4 -17 -18 -24 -31 -11 -22 -10 -27 14 -48 33 -28 60
-29 86 -3 26 26 25 42 -3 68 -24 22 -53 28 -73 14z"/>
<path d="M1298 4694 c-27 -14 -33 -28 -28 -69 6 -57 82 -76 119 -29 27 35 26
55 -4 88 -27 29 -48 32 -87 10z"/>
<path d="M1726 4669 c-14 -11 -26 -31 -26 -43 0 -48 71 -75 102 -38 28 32 29
52 3 78 -29 29 -45 30 -79 3z"/>
<path d="M1677 4082 c-22 -24 -22 -75 1 -94 30 -27 55 -29 90 -8 26 16 32 26
32 53 0 20 -7 41 -18 50 -25 23 -85 22 -105 -1z"/>
<path d="M6197 4092 c-37 -40 -8 -122 42 -122 30 0 65 31 75 67 16 52 -80 97
-117 55z"/>
<path d="M7057 2955 l-16 -45 35 0 c24 0 34 5 34 15 0 16 -27 75 -34 75 -2 0
-11 -20 -19 -45z"/>
<path d="M2093 2240 c-68 -28 -52 -145 23 -170 39 -13 120 -8 187 12 l37 11 0
79 0 78 -112 -1 c-62 0 -123 -4 -135 -9z"/>
<path d="M5943 2530 c-40 -24 -62 -57 -70 -104 l-6 -36 162 0 c155 0 161 1
161 20 0 35 -26 85 -59 113 -28 23 -42 27 -94 27 -44 0 -71 -6 -94 -20z"/>
<path d="M3245 2536 c-47 -20 -85 -71 -85 -112 l0 -34 129 0 c71 0 143 -3 160
-6 29 -6 31 -5 31 25 0 40 -21 91 -49 115 -27 25 -142 32 -186 12z"/>
<path d="M4876 1502 c-16 -42 -31 -83 -33 -89 -4 -10 13 -13 67 -13 39 0 70 3
68 8 -2 4 -17 44 -33 89 -17 46 -32 83 -35 83 -3 0 -18 -35 -34 -78z"/>
</g>
</svg>
